# xmcd CD database file
#
# Track frame offsets:
#	150
#	19553
#	41275
#	71381
#	112899
#	135187
#	150050
#	173400
#	205734
#	210265
#	242989
#
# Disc length: 3629 seconds
#
# Revision: 0
# Processed by: cddbd v1.5.1PL2 Copyright (c) Steve Scherf et al.
# Submitted via: Feurio! 1.68 - http://www.feurio.com
#
DISCID=710e2b0b
DTITLE=Gary Moore - Live in Hamburg am 13.3.2000
DYEAR=1900
DGENRE=Bluesrock
TTITLE0=Walking By Myself
TTITLE1=Oh, Pretty Woman
TTITLE2=Lost In Your Love
TTITLE3=Need Your Love So Bad
TTITLE4=Cold Black Night
TTITLE5=Fire
TTITLE6=I'm Too Tired
TTITLE7=Further On Up The Road
TTITLE8=Applaus
TTITLE9=The Blues Is Alright
TTITLE10=Parisienne Walkways
EXTD=
EXTT0=Live in Hamburg, 13-03-2000
EXTT1=Live in Hamburg, 13-03-2000
EXTT2=Live in Hamburg, 13-03-2000
EXTT3=Live in Hamburg, 13-03-2000
EXTT4=Live in Hamburg, 13-03-2000
EXTT5=Live in Hamburg, 13-03-2000
EXTT6=Live in Hamburg, 13-03-2000
EXTT7=Live in Hamburg, 13-03-2000
EXTT8=Live in Hamburg, 13-03-2000
EXTT9=Live in Hamburg, 13-03-2000
EXTT10=Live in Hamburg, 13-03-2000
PLAYORDER=
